<svg width="1440" height="30" viewBox="0 0 1440 30" fill="none" xmlns="http://www.w3.org/2000/svg">
<path d="M14.49 25C9.66 18.3333 4.83 18.3333 0 25V0H1449V25C1444.17 31.6667 1439.34 31.6667 1434.51 25C1429.68 18.3333 1424.85 18.3333 1420.02 25C1415.19 31.6667 1410.36 31.6667 1405.53 25C1400.7 18.3333 1395.87 18.3333 1391.04 25C1386.21 31.6667 1381.38 31.6667 1376.55 25C1371.72 18.3333 1366.89 18.3333 1362.06 25C1357.23 31.6667 1352.4 31.6667 1347.57 25C1342.74 18.3333 1337.91 18.3333 1333.08 25C1328.25 31.6667 1323.42 31.6667 1318.59 25C1313.76 18.3333 1308.93 18.3333 1304.1 25C1299.27 31.6667 1294.44 31.6667 1289.61 25C1284.78 18.3333 1279.95 18.3333 1275.12 25C1270.29 31.6667 1265.46 31.6667 1260.63 25C1255.8 18.3333 1250.97 18.3333 1246.14 25C1241.31 31.6667 1236.48 31.6667 1231.65 25C1226.82 18.3333 1221.99 18.3333 1217.16 25C1212.33 31.6667 1207.5 31.6667 1202.67 25C1197.84 18.3333 1193.01 18.3333 1188.18 25C1183.35 31.6667 1178.52 31.6667 1173.69 25C1168.86 18.3333 1164.03 18.3333 1159.2 25C1154.37 31.6667 1149.54 31.6667 1144.71 25C1139.88 18.3333 1135.05 18.3333 1130.22 25C1125.39 31.6667 1120.56 31.6667 1115.73 25C1110.9 18.3333 1106.07 18.3333 1101.24 25C1096.41 31.6667 1091.58 31.6667 1086.75 25C1081.92 18.3333 1077.09 18.3333 1072.26 25C1067.43 31.6667 1062.6 31.6667 1057.77 25C1052.94 18.3333 1048.11 18.3333 1043.28 25C1038.45 31.6667 1033.62 31.6667 1028.79 25C1023.96 18.3333 1019.13 18.3333 1014.3 25C1009.47 31.6667 1004.64 31.6667 999.81 25C994.98 18.3333 990.15 18.3333 985.32 25C980.49 31.6667 975.66 31.6667 970.83 25C966 18.3333 961.17 18.3333 956.34 25C951.51 31.6667 946.68 31.6667 941.85 25C937.02 18.3333 932.19 18.3333 927.36 25C922.53 31.6667 917.7 31.6667 912.87 25C908.04 18.3333 903.21 18.3333 898.38 25C893.55 31.6667 888.72 31.6667 883.89 25C879.06 18.3333 874.23 18.3333 869.4 25C864.57 31.6667 859.74 31.6667 854.91 25C850.08 18.3333 845.25 18.3333 840.42 25C835.59 31.6667 830.76 31.6667 825.93 25C821.1 18.3333 816.27 18.3333 811.44 25C806.61 31.6667 801.78 31.6667 796.95 25C792.12 18.3333 787.29 18.3333 782.46 25C777.63 31.6667 772.8 31.6667 767.97 25C763.14 18.3333 758.31 18.3333 753.48 25C748.65 31.6667 743.82 31.6667 738.99 25C734.16 18.3333 729.33 18.3333 724.5 25C719.67 31.6667 714.84 31.6667 710.01 25C705.18 18.3333 700.35 18.3333 695.52 25C690.69 31.6667 685.86 31.6667 681.03 25C676.2 18.3333 671.37 18.3333 666.54 25C661.71 31.6667 656.88 31.6667 652.05 25C647.22 18.3333 642.39 18.3333 637.56 25C632.73 31.6667 627.9 31.6667 623.07 25C618.24 18.3333 613.41 18.3333 608.58 25C603.75 31.6667 598.92 31.6667 594.09 25C589.26 18.3333 584.43 18.3333 579.6 25C574.77 31.6667 569.94 31.6667 565.11 25C560.28 18.3333 555.45 18.3333 550.62 25C545.79 31.6667 540.96 31.6667 536.13 25C531.3 18.3333 526.47 18.3333 521.64 25C516.81 31.6667 511.98 31.6667 507.15 25C502.32 18.3333 497.49 18.3333 492.66 25C487.83 31.6667 483 31.6667 478.17 25C473.34 18.3333 468.51 18.3333 463.68 25C458.85 31.6667 454.02 31.6667 449.19 25C444.36 18.3333 439.53 18.3333 434.7 25C429.87 31.6667 425.04 31.6667 420.21 25C415.38 18.3333 410.55 18.3333 405.72 25C400.89 31.6667 396.06 31.6667 391.23 25C386.4 18.3333 381.57 18.3333 376.74 25C371.91 31.6667 367.08 31.6667 362.25 25C357.42 18.3333 352.59 18.3333 347.76 25C342.93 31.6667 338.1 31.6667 333.27 25C328.44 18.3333 323.61 18.3333 318.78 25C313.95 31.6667 309.12 31.6667 304.29 25C299.46 18.3333 294.63 18.3333 289.8 25C284.97 31.6667 280.14 31.6667 275.31 25C270.48 18.3333 265.65 18.3333 260.82 25C255.99 31.6667 251.16 31.6667 246.33 25C241.5 18.3333 236.67 18.3333 231.84 25C227.01 31.6667 222.18 31.6667 217.35 25C212.52 18.3333 207.69 18.3333 202.86 25C198.03 31.6667 193.2 31.6667 188.37 25C183.54 18.3333 178.71 18.3333 173.88 25C169.05 31.6667 164.22 31.6667 159.39 25C154.56 18.3333 149.73 18.3333 144.9 25C140.07 31.6667 135.24 31.6667 130.41 25C125.58 18.3333 120.75 18.3333 115.92 25C111.09 31.6667 106.26 31.6667 101.43 25C96.6 18.3333 91.77 18.3333 86.94 25C82.11 31.6667 77.28 31.6667 72.45 25C67.62 18.3333 62.79 18.3333 57.96 25C53.13 31.6667 48.3 31.6667 43.47 25C38.64 18.3333 33.81 18.3333 28.98 25C24.15 31.6667 19.32 31.6667 14.49 25Z" fill="#FFFFFF"/>
</svg>